<?xml version="1.0" standalone="no"?>
<!DOCTYPE svg PUBLIC "-//W3C//DTD SVG 20010904//EN"
 "http://www.w3.org/TR/2001/REC-SVG-20010904/DTD/svg10.dtd">
<svg version="1.0" xmlns="http://www.w3.org/2000/svg"
 width="1623.000000pt" height="1080.000000pt" viewBox="0 0 1623.000000 1080.000000"
 preserveAspectRatio="xMidYMid meet">
<metadata>
Created by potrace 1.16, written by Peter Selinger 2001-2019
</metadata>
<g transform="translate(0.000000,1080.000000) scale(0.100000,-0.100000)"
fill="#000000" stroke="none">
<path d="M0 5400 l0 -5400 8115 0 8115 0 0 5400 0 5400 -8115 0 -8115 0 0
-5400z m3560 4658 c102 9 636 13 918 7 280 -6 346 -10 357 -22 9 -9 15 -34 15
-63 0 -32 6 -55 19 -71 l19 -24 299 -1 c164 0 309 4 323 8 34 13 40 25 40 90
0 54 1 57 31 67 30 10 888 -1 1039 -14 36 -3 191 -10 344 -15 167 -5 283 -13
290 -20 7 -7 7 -10 -1 -10 -10 0 -16 -21 -29 -112 -4 -21 -10 -38 -14 -38 -5
0 1 -18 13 -40 12 -22 28 -40 35 -40 6 0 12 -5 12 -11 0 -5 6 -7 13 -3 6 4 9
4 5 0 -3 -4 0 -22 7 -40 13 -30 12 -36 -11 -69 -14 -22 -33 -37 -44 -37 -11 0
-40 -5 -65 -12 -38 -10 -48 -10 -55 2 -7 11 -11 11 -24 1 -21 -18 -20 -34 3
-48 29 -18 16 -44 -41 -89 -27 -21 -66 -54 -87 -71 -20 -18 -59 -49 -87 -70
-29 -21 -64 -58 -80 -83 -15 -25 -49 -68 -76 -97 -47 -51 -48 -53 -48 -118 0
-66 0 -66 -35 -81 -44 -18 -109 -18 -160 1 -22 8 -58 14 -81 15 -29 0 -53 9
-82 30 -52 37 -71 73 -78 149 -6 51 -4 63 14 85 18 24 20 40 19 164 0 94 4
149 13 175 12 32 12 39 0 51 -39 38 -302 119 -352 109 -30 -6 -59 -45 -155
-206 -55 -95 -62 -117 -40 -136 21 -17 37 -83 46 -184 4 -51 13 -102 19 -114
7 -12 12 -59 12 -104 0 -75 -3 -88 -40 -165 -33 -68 -49 -88 -85 -111 -24 -15
-49 -40 -55 -54 -17 -40 -68 -84 -137 -119 -35 -17 -63 -35 -63 -41 0 -15 -37
-10 -51 7 -17 21 -15 71 5 109 9 17 16 34 16 38 0 4 9 29 21 54 19 42 20 51 8
86 -16 49 -31 55 -77 30 -39 -20 -41 -29 -26 -100 5 -28 3 -33 -28 -46 -18 -8
-50 -21 -70 -27 -65 -20 -86 -77 -52 -141 10 -20 14 -52 13 -92 -1 -34 1 -80
5 -103 13 -67 -3 -75 -135 -70 -128 4 -139 -1 -159 -76 -7 -26 -23 -60 -37
-74 -22 -23 -29 -25 -71 -19 -70 9 -87 16 -71 25 19 12 -7 40 -37 40 -17 0
-28 8 -34 25 -13 34 -27 31 -35 -7 -4 -18 -11 -38 -16 -44 -10 -12 -31 -115
-31 -151 0 -13 -4 -23 -9 -23 -5 0 -9 -8 -9 -17 0 -14 3 -14 20 5 11 12 20 26
20 32 0 15 39 52 50 45 5 -3 4 -18 -2 -36 -9 -27 -7 -101 5 -164 5 -27 -29
-49 -71 -47 -25 2 -49 -8 -94 -38 -33 -22 -71 -40 -83 -40 -13 0 -52 -13 -88
-29 -59 -27 -64 -31 -60 -55 4 -21 1 -26 -15 -26 -23 0 -34 21 -22 40 5 8 3
25 -6 41 -8 16 -14 36 -14 46 0 10 -9 33 -20 51 -29 46 -51 39 -70 -24 -17
-56 -35 -84 -56 -84 -7 0 -29 -9 -48 -19 -30 -17 -35 -18 -40 -5 -11 28 -7 66
7 61 52 -19 57 -19 68 9 13 37 -7 164 -29 180 -18 13 -52 -2 -52 -23 0 -7 -4
-13 -10 -13 -5 0 -10 11 -10 24 0 14 -4 28 -10 31 -5 3 -10 16 -10 28 0 12 -9
49 -20 82 -18 52 -19 66 -9 112 16 71 -1 93 -75 93 -120 0 -185 89 -141 194
13 31 13 41 2 69 -15 34 -26 131 -28 247 -2 79 -10 96 -47 103 -21 4 -33 16
-46 46 -19 42 -39 54 -116 70 -26 6 -51 18 -58 30 -8 11 -25 32 -38 48 -33 37
-106 189 -102 211 5 25 60 39 184 46 128 6 142 10 146 39 2 15 14 25 36 32
l33 10 -6 85 c-12 168 -11 166 -59 189 -25 12 -62 21 -90 21 -27 0 -104 7
-173 17 -86 11 -127 13 -134 6 -6 -6 -13 -37 -15 -69 -8 -91 -12 -107 -32
-101 -64 19 -149 54 -158 66 -13 17 -26 134 -17 157 5 13 16 15 60 10 49 -6
56 -4 78 20 38 41 37 81 -5 206 -45 129 -46 127 53 130 45 2 152 1 237 -1 85
-3 166 -4 180 -3z m4035 -105 c-4 -16 -7 -28 -8 -28 -1 -1 -10 -7 -20 -14 -15
-12 -21 -11 -42 9 -43 40 -32 58 39 59 37 1 38 0 31 -26z m-5776 -3 c20 0 35
-11 63 -49 32 -43 40 -65 67 -202 17 -85 40 -183 50 -219 10 -36 26 -108 35
-160 9 -52 24 -126 33 -164 14 -61 18 -67 29 -52 10 14 11 55 7 177 -6 158 -6
159 15 159 15 0 22 -6 22 -19 0 -11 5 -23 10 -26 6 -3 10 -1 10 5 0 6 4 9 9 6
5 -4 8 -26 6 -51 -2 -40 -1 -44 18 -42 18 2 22 -5 29 -50 4 -28 14 -71 23 -95
8 -24 15 -68 15 -98 0 -66 24 -118 66 -141 35 -19 45 -63 17 -78 -11 -5 -82
-14 -159 -20 -76 -6 -153 -14 -169 -17 -55 -10 -73 16 -96 141 -22 116 -43
155 -97 176 -31 12 -47 55 -67 184 -9 61 -22 138 -29 172 -11 55 -11 66 3 85
17 24 19 72 11 260 -4 100 7 135 37 123 8 -3 27 -5 42 -5z m5752 -104 c16 -33
-1 -79 -31 -86 l-23 -5 27 -12 c45 -21 30 -60 -26 -70 -29 -4 -38 -2 -47 15
-8 15 -7 23 4 32 13 11 13 14 -2 26 -10 7 -27 14 -38 14 -27 0 -49 35 -36 58
10 17 97 49 139 51 15 1 26 -7 33 -23z m1447 2 c19 -19 16 -202 -4 -222 -20
-20 -73 -20 -102 0 -21 14 -30 53 -15 68 4 3 6 29 4 57 -1 28 3 64 9 80 11 25
18 29 54 29 23 0 47 -5 54 -12z m-1557 -230 c34 -10 39 -15 39 -42 0 -28 1
-29 16 -14 12 12 23 14 40 8 13 -5 45 -12 71 -16 27 -3 66 -12 88 -20 22 -7
47 -14 56 -14 30 0 43 -31 51 -123 4 -51 11 -121 14 -157 6 -72 -14 -144 -39
-134 -7 2 -31 -9 -52 -26 -21 -16 -45 -30 -55 -30 -34 0 -90 85 -109 168 -11
43 -10 60 3 105 9 31 16 64 16 74 0 19 -41 63 -59 63 -4 0 -29 16 -54 35 -25
19 -52 35 -59 35 -20 0 -58 29 -58 45 0 13 37 55 48 55 3 0 22 -5 43 -12z
m-306 -68 c-3 -5 -13 -10 -21 -10 -8 0 -14 5 -14 10 0 6 9 10 21 10 11 0 17
-4 14 -10z m1823 -36 c16 -11 22 -25 22 -55 0 -22 -5 -49 -10 -59 -8 -16 -6
-22 10 -32 21 -13 28 -48 10 -48 -6 0 -15 -11 -20 -25 -12 -32 -34 -41 -64
-27 -29 13 -39 64 -19 92 10 14 11 25 3 39 -14 28 -13 118 3 124 23 10 42 7
65 -9z m1289 -24 c20 0 53 -42 53 -67 0 -33 -29 -43 -124 -43 -47 0 -140 -4
-208 -10 -68 -5 -154 -11 -193 -13 -57 -3 -71 -7 -73 -21 -3 -13 1 -16 21 -11
37 10 168 -13 189 -32 10 -9 18 -24 18 -34 0 -10 7 -25 16 -34 22 -22 11 -59
-26 -87 -17 -12 -30 -30 -30 -40 0 -23 11 -23 32 1 10 12 42 23 87 32 81 14
85 19 85 122 1 47 4 57 18 57 10 0 22 9 28 20 13 24 71 28 90 5 7 -8 19 -15
26 -15 9 0 14 -11 14 -27 0 -28 29 -119 30 -94 0 9 8 11 25 7 26 -7 45 15 45
53 0 34 29 54 73 48 39 -5 66 -29 67 -57 0 -8 8 -31 19 -50 10 -19 21 -51 25
-70 4 -23 14 -39 29 -45 12 -6 27 -24 32 -41 6 -17 25 -45 43 -64 27 -27 33
-39 30 -69 -2 -28 -9 -39 -30 -49 -26 -12 -28 -18 -29 -75 -1 -34 -2 -73 -3
-87 -1 -23 2 -24 44 -21 25 1 67 7 94 12 70 13 146 12 146 -3 0 -6 10 -22 22
-35 l22 -23 -22 -38 c-14 -26 -31 -40 -56 -47 -19 -5 -35 -12 -35 -15 0 -3 -2
-12 -4 -20 -19 -68 -23 -73 -66 -90 l-44 -17 41 -19 c38 -17 42 -22 42 -57 0
-22 -5 -39 -12 -41 -82 -23 -125 -39 -138 -50 -8 -7 -34 -16 -58 -19 -24 -3
-46 -8 -49 -11 -3 -3 -8 -35 -11 -71 -4 -50 -9 -68 -23 -76 -11 -5 -19 -16
-19 -23 0 -8 -7 -19 -15 -26 -13 -11 -12 -15 5 -37 23 -29 26 -81 8 -105 -7
-8 -31 -25 -52 -38 -22 -13 -34 -26 -28 -28 7 -2 10 -8 6 -13 -3 -5 11 -16 30
-24 32 -13 36 -20 36 -50 0 -19 5 -35 10 -35 6 0 10 -47 10 -120 0 -100 3
-120 15 -120 17 0 18 -18 6 -72 -8 -35 -7 -38 13 -33 11 2 44 7 71 10 28 4 68
13 91 20 22 7 78 19 124 25 46 6 93 16 103 22 37 19 87 -17 92 -67 3 -27 -46
-56 -116 -70 -157 -31 -206 -43 -251 -64 -26 -11 -53 -21 -60 -21 -7 0 -35
-12 -62 -26 -58 -31 -130 -54 -171 -54 -17 0 -36 -5 -42 -11 -6 -6 -26 -14
-44 -19 -19 -4 -61 -17 -94 -28 -33 -12 -87 -29 -120 -38 -33 -10 -67 -21 -75
-25 -50 -24 -153 -54 -252 -74 -10 -2 -44 -15 -75 -28 -63 -26 -114 -43 -153
-51 -14 -3 -56 -14 -95 -26 -38 -12 -91 -27 -116 -34 -25 -7 -56 -22 -68 -33
-23 -21 -132 -55 -221 -68 -25 -4 -56 -13 -70 -20 -77 -39 -118 65 -57 147 22
30 25 45 30 180 6 140 5 147 -13 153 -14 4 -20 15 -20 34 0 16 -7 46 -16 66
-20 49 -12 94 25 129 28 27 29 31 31 134 1 59 5 211 9 337 l6 230 55 7 c81 10
158 25 135 27 -11 0 -57 -4 -102 -10 -66 -10 -85 -9 -98 1 -14 11 -15 45 -13
254 3 213 6 245 22 276 13 23 15 35 7 38 -6 2 -11 26 -11 56 0 45 3 54 23 63
23 11 215 43 255 43 13 0 20 4 17 10 -3 6 3 10 13 10 24 0 38 29 17 35 -8 3
-22 7 -30 10 -10 3 -15 17 -15 40 0 31 3 35 25 35 22 0 25 4 25 39 0 22 5 43
10 46 6 3 10 15 10 26 0 10 4 19 9 19 6 0 7 24 4 55 -4 34 -2 55 4 55 14 0 25
-162 17 -248 -5 -50 -3 -72 4 -72 7 0 12 -26 14 -62 2 -35 6 90 10 276 6 259
11 343 21 353 19 19 174 31 517 39 168 3 307 8 310 11 2 2 14 2 25 -1 11 -3
25 -6 32 -6z m3497 -183 c9 -8 10 -27 6 -62 -4 -28 -8 -38 -9 -22 0 16 -7 27
-15 27 -21 0 -38 27 -31 50 7 23 30 26 49 7z m-7877 -112 c5 -16 -14 -38 -26
-31 -18 12 -13 48 6 44 9 -2 18 -7 20 -13z m7866 -199 c31 -50 35 -101 11
-147 -8 -17 -13 -37 -10 -44 9 -25 -23 -54 -68 -60 -37 -6 -48 -3 -65 14 -11
11 -18 27 -15 36 4 8 2 21 -4 28 -5 6 -8 23 -7 37 1 14 0 29 -3 35 -16 27 -5
53 39 97 61 61 85 62 122 4z m-4555 -73 c-2 -21 -7 -38 -13 -38 -5 0 -11 17
-13 38 -3 29 0 37 13 37 13 0 16 -8 13 -37z m-2638 -62 c0 -4 -10 -7 -22 -5
-31 3 -30 3 -24 13 7 10 46 3 46 -8z m2667 13 c-3 -3 -12 -4 -19 -1 -8 3 -5 6
6 6 11 1 17 -2 13 -5z m43 -14 c-20 -13 -43 -13 -35 0 3 6 16 10 28 10 18 0
19 -2 7 -10z m3287 -22 c-3 -7 -5 -2 -5 12 0 14 2 19 5 13 2 -7 2 -19 0 -25z
m-512 12 c3 -5 17 -10 31 -10 13 0 24 -4 24 -10 0 -5 -5 -10 -11 -10 -6 0 -9
-6 -6 -13 3 -8 2 -18 -1 -23 -13 -17 -74 -44 -85 -37 -6 4 -8 0 -4 -9 9 -24
-26 -29 -90 -12 -31 8 -66 15 -79 16 -14 1 -23 7 -21 12 4 13 73 51 120 67 24
8 36 17 33 26 -4 10 6 13 39 13 24 0 47 -4 50 -10z m-2830 -10 c16 -7 11 -9
-20 -9 -29 -1 -36 2 -25 9 17 11 19 11 45 0z m2592 -126 c-3 -3 -12 -4 -19 -1
-8 3 -5 6 6 6 11 1 17 -2 13 -5z m-9754 -149 c4 -8 2 -17 -4 -21 -12 -7 -41
15 -33 27 8 14 31 11 37 -6z m3285 -77 c4 -48 -12 -78 -42 -78 -30 0 -49 23
-49 60 0 40 16 56 55 55 31 0 33 -2 36 -37z m-3101 3 c-2 -11 4 -33 14 -50 19
-31 20 -31 49 -16 17 9 30 20 30 25 0 5 7 16 16 24 14 14 18 14 46 0 27 -14
31 -14 48 1 15 13 25 15 47 7 31 -10 32 -25 7 -76 -18 -36 -18 -47 0 -83 35
-70 45 -140 24 -161 -9 -9 -8 -24 1 -64 12 -50 22 -236 22 -379 -1 -44 -7 -81
-20 -110 -18 -40 -19 -46 -5 -67 21 -31 13 -48 -30 -62 -47 -15 -46 -37 4 -58
24 -10 40 -24 40 -34 0 -23 -27 -48 -54 -48 -30 0 -76 22 -76 38 0 6 -8 12
-17 12 -23 0 -113 -28 -94 -29 11 -1 11 -4 1 -16 -17 -20 -37 -19 -49 3 -6 9
-11 11 -11 5 0 -7 -6 -13 -14 -13 -22 0 -40 30 -38 61 3 40 -26 50 -112 39
-37 -5 -69 -10 -70 -12 -1 -1 -7 -10 -13 -18 -8 -11 -9 -28 -3 -53 4 -20 4
-37 0 -37 -5 0 -17 -18 -27 -41 -10 -22 -29 -47 -44 -54 -22 -12 -30 -11 -56
5 -44 27 -48 38 -19 61 33 26 33 52 -1 89 -16 16 -36 39 -45 50 -22 24 -51 26
-73 4 -23 -23 -16 -68 12 -72 28 -4 37 -29 15 -40 -31 -16 -90 -13 -94 5 -2 8
-19 21 -38 27 -29 9 -36 16 -38 42 -4 42 16 60 86 75 62 12 95 30 98 53 2 15
-12 16 -34 2 -7 -4 -41 -10 -75 -13 -34 -3 -71 -12 -82 -19 -29 -20 -42 -17
-49 12 -5 20 1 34 29 66 19 23 47 49 61 59 14 9 22 19 17 21 -13 8 -67 21 -77
19 -18 -4 -46 11 -46 25 0 8 3 14 8 14 4 0 12 10 17 22 6 12 28 31 50 43 35
17 40 25 43 59 6 67 -3 82 -52 95 -24 6 -46 18 -50 26 -6 18 2 45 15 45 5 0 8
3 7 8 -1 4 1 30 5 58 6 40 12 54 33 65 23 12 25 18 21 50 -5 41 0 52 27 62 24
9 49 -24 56 -73 4 -31 10 -36 42 -44 28 -7 42 -6 60 6 18 12 29 13 42 6 13 -8
22 -6 34 6 15 15 15 19 -2 51 -19 34 -19 34 8 79 43 73 108 112 147 87 33 -20
66 -13 88 18 19 26 19 30 5 41 -24 20 5 33 33 14 13 -8 23 -10 23 -5 0 5 10
25 23 45 24 38 63 50 54 17z m3384 -49 c4 -18 14 -41 23 -51 19 -21 21 -93 5
-141 -11 -29 -9 -35 8 -49 40 -31 46 -61 51 -226 4 -153 3 -161 -18 -187 -12
-16 -28 -28 -36 -28 -8 0 -14 -3 -14 -8 0 -12 -55 -32 -96 -36 -24 -2 -53 4
-76 15 -21 11 -52 19 -71 19 -30 0 -36 5 -52 40 -17 38 -17 40 0 67 10 15 49
57 87 93 38 35 76 79 85 97 8 18 21 33 29 33 25 0 84 42 84 61 0 31 -21 66
-46 78 -35 16 -77 105 -68 144 4 18 8 35 8 39 1 3 4 10 9 14 4 4 7 15 7 24 0
24 22 41 50 38 19 -2 26 -11 31 -36z m471 -54 c7 -14 15 -100 20 -223 8 -194
8 -202 -14 -257 -12 -32 -28 -60 -35 -62 -22 -9 -62 18 -69 47 -3 15 -16 40
-28 55 -21 27 -38 59 -51 97 -13 40 -15 252 -2 268 19 24 130 96 149 97 10 0
23 -10 30 -22z m-2857 -101 c4 -29 9 -66 10 -84 2 -33 29 -83 45 -83 5 0 19
14 32 30 16 23 30 30 55 30 29 0 35 -5 53 -44 11 -25 46 -71 78 -103 68 -67
81 -94 111 -223 30 -132 41 -242 41 -394 0 -118 -2 -135 -23 -167 l-22 -36
-71 17 c-40 9 -80 13 -92 9 -11 -4 -38 -6 -61 -4 -71 5 -105 53 -116 162 -7
76 -21 146 -42 213 -8 25 -15 83 -14 132 0 48 -4 90 -9 93 -6 4 -10 24 -10 45
0 21 -5 51 -11 67 -6 15 -12 105 -14 198 -2 138 0 173 12 187 23 26 40 11 48
-45z m-1701 -67 c23 -8 25 -12 14 -35 -13 -29 -16 -30 -46 -9 -24 17 -29 40
-9 47 6 3 13 6 14 6 1 1 13 -3 27 -9z m3522 -156 c14 -30 15 -41 4 -74 -7 -21
-10 -51 -7 -66 11 -61 -21 -300 -38 -282 -3 2 -9 49 -14 104 -6 54 -15 145
-22 201 -14 119 -6 153 35 153 19 0 29 -9 42 -36z m-304 -29 c3 3 11 -2 19
-12 12 -15 12 -16 -4 -10 -10 4 -25 7 -33 7 -8 0 -14 7 -14 16 0 13 3 14 13 5
8 -6 16 -9 19 -6z m48 -49 c0 -9 -7 -12 -20 -9 -31 8 -34 23 -6 23 16 0 26 -6
26 -14z m1915 -65 c-11 -3 -20 -12 -20 -20 0 -17 -52 -33 -77 -25 -23 7 -23
16 2 44 11 13 20 18 20 12 0 -20 17 -13 23 9 5 20 6 20 39 3 29 -16 31 -18 13
-23z m4334 -54 c27 -29 32 -40 30 -76 -4 -51 -34 -84 -75 -79 -27 3 -30 8 -41
62 -14 74 3 119 48 125 3 1 20 -14 38 -32z m-6191 -109 c-6 -18 -22 -20 -43
-3 -19 14 -18 14 13 15 22 0 32 -4 30 -12z m6181 -97 c12 -8 10 -12 -12 -22
-25 -11 -37 -29 -19 -29 4 0 18 -9 32 -19 20 -16 22 -21 11 -35 -7 -9 -11 -24
-8 -35 8 -30 -33 -43 -62 -20 -22 18 -23 25 -17 75 10 87 32 112 75 85z
m-4473 -118 c38 -16 59 -21 157 -42 27 -6 60 -19 75 -30 37 -26 215 -119 260
-135 20 -7 75 -28 122 -45 47 -17 92 -31 101 -31 9 0 41 -11 70 -23 30 -13 89
-36 133 -52 43 -15 94 -36 112 -47 38 -22 113 -94 89 -84 -10 3 -15 0 -15 -11
0 -14 -9 -15 -67 -9 -62 6 -142 28 -168 46 -5 4 -28 11 -50 15 -71 12 -159 47
-205 80 -33 24 -61 34 -105 40 -33 4 -91 19 -130 35 -38 15 -101 38 -140 50
-38 13 -86 31 -105 40 -19 10 -73 31 -120 48 -210 76 -229 85 -236 104 -9 29
14 46 76 57 83 13 104 13 146 -6z m-2520 -69 c41 -19 78 -78 69 -111 -5 -20
-11 -23 -54 -23 -27 0 -53 6 -58 13 -14 17 -24 87 -17 115 7 26 15 27 60 6z
m6993 -28 c-15 -13 -49 -25 -49 -17 0 5 8 12 18 14 24 6 36 8 31 3z m1897 -21
c-11 -8 -14 -15 -8 -15 19 0 14 -18 -8 -25 -30 -9 -40 2 -27 30 8 17 20 25 37
25 24 -1 24 -1 6 -15z m189 -64 c-3 -12 -10 -21 -15 -21 -4 0 -3 11 3 24 14
29 22 27 12 -3z m-7236 -76 c47 -22 53 -28 40 -40 -8 -7 -72 -28 -144 -45
-261 -62 -356 -81 -445 -90 -95 -11 -153 -20 -375 -64 -99 -19 -205 -38 -235
-42 -157 -19 -210 -45 -210 -103 1 -42 27 -229 35 -240 3 -6 19 -11 35 -11 25
0 29 -4 35 -41 7 -40 35 -65 43 -39 8 22 83 100 97 100 16 0 38 -119 33 -176
-2 -31 -9 -42 -36 -57 -18 -10 -47 -20 -66 -22 -38 -4 -86 -26 -106 -50 -19
-23 -6 -146 24 -226 22 -58 26 -93 36 -295 7 -126 16 -241 22 -257 14 -35 48
-44 101 -24 23 9 71 21 107 27 36 6 83 18 105 27 22 9 58 19 80 24 22 4 59 13
82 19 23 7 54 9 68 6 23 -6 25 -11 25 -61 0 -51 -2 -56 -31 -71 -21 -10 -46
-14 -74 -11 -31 4 -53 0 -79 -14 -38 -20 -201 -62 -290 -75 -36 -5 -59 -16
-87 -42 -22 -19 -39 -40 -39 -48 0 -16 61 -64 83 -64 9 0 31 9 49 20 47 29 76
26 96 -10 28 -49 64 -37 123 43 25 33 39 34 69 2 36 -38 58 -33 66 17 10 61
35 81 92 74 146 -20 147 -20 183 12 l34 30 -3 97 c-2 67 -8 104 -19 121 -21
32 -6 49 61 68 28 8 89 26 136 40 167 48 250 68 263 63 14 -5 139 33 175 53 9
5 50 19 91 31 82 23 131 61 131 102 0 13 -7 44 -15 67 -8 23 -15 54 -15 69 0
39 -24 99 -45 115 -10 7 -15 18 -12 24 10 15 -48 32 -84 25 -21 -4 -38 -18
-53 -42 -27 -42 -54 -67 -63 -58 -3 4 -6 35 -7 69 l-1 63 47 31 c43 29 51 31
82 22 18 -6 50 -8 70 -4 29 6 37 12 41 34 3 15 12 50 20 78 19 66 19 114 -1
164 -20 48 -48 59 -97 35 -57 -27 -80 -18 -90 35 -4 25 -5 60 -2 77 6 32 7 32
49 27 36 -5 46 -3 65 17 11 12 21 32 21 43 1 12 7 32 15 46 8 14 14 47 15 73
0 54 22 113 48 133 30 23 60 15 129 -32 37 -25 78 -50 91 -55 23 -9 86 -48
177 -109 37 -25 128 -70 140 -70 4 0 42 -25 86 -55 43 -31 105 -64 137 -74 73
-24 159 -76 167 -102 4 -10 11 -19 16 -19 5 0 17 -16 26 -35 10 -19 31 -60 47
-91 16 -32 25 -59 19 -63 -5 -3 -13 -13 -17 -21 -4 -8 -13 -26 -21 -40 -8 -14
-15 -46 -15 -72 0 -40 -5 -52 -40 -89 -44 -48 -46 -55 -26 -104 16 -37 42 -55
78 -55 13 0 33 -7 44 -15 18 -14 18 -16 2 -29 -10 -7 -18 -17 -18 -23 0 -5
-15 -23 -32 -40 -37 -34 -92 -47 -109 -26 -6 7 -18 13 -25 13 -8 0 -14 5 -14
10 0 6 -13 10 -30 10 -16 0 -30 -5 -30 -11 0 -5 -4 -8 -9 -5 -4 3 -16 -3 -26
-14 -10 -11 -22 -20 -27 -20 -5 0 -16 -7 -24 -15 -9 -8 -28 -15 -44 -15 -16 0
-32 -4 -35 -10 -3 -5 -14 -10 -24 -10 -10 0 -26 -9 -36 -20 -10 -11 -22 -20
-27 -20 -4 0 -27 -9 -51 -19 -55 -25 -97 -34 -97 -21 0 5 5 10 10 10 17 0 11
17 -19 49 -35 37 -45 38 -70 9 -72 -84 -67 -68 -44 -126 l16 -43 -33 -30 c-27
-25 -39 -30 -64 -25 -75 15 -77 14 -91 -75 -3 -19 -14 -45 -25 -57 -12 -12
-16 -23 -10 -27 6 -3 10 -1 10 4 0 6 6 11 13 11 11 0 -79 -94 -92 -95 -3 -1
-16 -4 -27 -8 -31 -11 -72 8 -76 35 -2 15 -11 24 -26 26 -17 3 -25 -4 -36 -30
-8 -18 -12 -36 -9 -40 2 -5 2 -17 -2 -27 -7 -23 -54 -41 -106 -41 -23 0 -39
-5 -39 -11 0 -8 -17 -10 -53 -6 -50 5 -54 4 -69 -24 -10 -16 -30 -34 -45 -39
-15 -6 -37 -15 -48 -20 -40 -19 -147 -51 -188 -56 -34 -5 -46 -2 -64 15 -30
28 -49 26 -65 -6 -10 -20 -27 -32 -68 -45 -84 -26 -104 -24 -131 17 -15 22
-32 35 -46 35 -20 0 -23 -5 -23 -39 0 -82 -41 -132 -101 -125 -62 8 -88 4
-148 -25 -41 -19 -73 -28 -90 -25 -21 4 -29 -1 -42 -23 -15 -27 -70 -53 -113
-53 -9 0 -38 -12 -66 -27 -42 -23 -53 -25 -75 -15 -22 10 -43 43 -59 95 -8 24
-33 32 -52 16 -12 -10 -14 -27 -9 -88 6 -70 5 -78 -16 -100 -29 -30 -121 -71
-161 -71 -17 0 -50 -9 -72 -20 -23 -10 -78 -28 -124 -39 -46 -11 -89 -24 -95
-29 -7 -5 -30 -15 -52 -22 -22 -7 -56 -21 -75 -33 -22 -13 -55 -21 -92 -22
-40 -1 -64 -8 -83 -24 -30 -23 -39 -25 -101 -22 -25 2 -64 -7 -100 -22 -32
-14 -79 -28 -104 -32 -25 -4 -56 -13 -70 -20 -62 -31 -169 -29 -171 3 -1 14
-2 15 -6 1 -3 -12 -46 -35 -83 -44 -44 -12 -63 -15 -107 -19 -37 -3 -53 -1
-53 7 0 7 -4 6 -10 -3 -5 -8 -10 -12 -12 -10 -28 43 -28 49 5 131 21 53 44 94
67 116 89 86 87 85 92 51 2 -14 11 -24 24 -26 30 -4 41 37 15 59 -15 12 -17
19 -8 35 15 27 38 43 62 44 39 0 116 35 151 67 l36 32 -18 41 c-10 22 -24 40
-30 40 -7 0 -24 10 -37 23 -62 57 -77 66 -108 62 -18 -3 -39 -11 -48 -19 -15
-14 -20 -14 -38 -1 -16 11 -22 12 -25 3 -3 -7 -41 -14 -104 -18 -54 -3 -108
-11 -119 -17 -25 -14 -393 -14 -402 0 -3 5 -5 43 -4 85 1 50 -4 87 -13 104
-13 25 -13 30 4 50 13 16 15 28 9 40 -10 18 4 34 21 23 6 -3 10 -1 10 4 0 6 7
11 15 11 8 0 15 4 15 9 0 4 28 11 61 14 34 3 65 9 68 14 3 4 13 10 21 12 8 2
47 13 85 23 41 12 108 20 162 21 101 2 118 10 105 47 -5 15 -5 37 1 57 11 36
6 47 -30 58 -17 5 -23 2 -23 -9 0 -9 -5 -16 -10 -16 -7 0 -7 6 0 19 13 25 13
34 -1 26 -7 -5 -9 3 -7 21 2 16 8 28 15 27 7 -2 20 8 29 22 9 14 24 25 33 25
10 0 36 16 59 36 23 20 61 46 84 58 37 20 43 28 54 76 17 70 17 70 -1 70 -8 0
-15 -4 -15 -9 0 -15 -101 -121 -115 -121 -7 0 -18 -7 -25 -15 -17 -21 -136
-20 -179 1 -31 16 -35 15 -108 -14 -59 -24 -81 -29 -101 -21 -13 5 -27 7 -30
5 -2 -3 -14 1 -26 9 -33 24 -49 18 -103 -40 -48 -51 -56 -55 -97 -55 -35 0
-51 6 -70 25 -14 14 -32 25 -41 25 -9 0 -15 9 -15 21 0 26 30 79 45 79 6 0 24
13 39 29 15 16 42 32 59 35 32 7 67 32 67 49 0 6 -7 18 -16 28 -14 16 -14 20
1 49 17 33 63 79 79 80 5 0 17 7 26 15 10 9 27 17 38 20 34 6 64 25 59 38 -2
8 -21 11 -50 9 -30 -2 -47 0 -47 8 0 6 23 38 50 71 28 33 50 64 50 68 0 8 12
23 73 92 18 19 37 42 42 51 6 8 18 27 28 41 34 48 12 52 -35 6 -25 -24 -76
-74 -114 -110 -38 -37 -107 -107 -153 -155 -46 -49 -127 -134 -180 -190 -53
-55 -123 -129 -157 -165 -85 -90 -222 -213 -242 -218 -9 -2 -20 -8 -24 -15 -4
-6 -8 6 -8 27 0 20 -4 37 -10 37 -5 0 -10 12 -10 27 0 15 -9 59 -19 97 -18 65
-33 177 -45 331 -3 33 -13 101 -22 150 -11 65 -14 114 -9 179 8 102 13 125 26
104 6 -9 9 -5 9 13 0 20 6 28 24 33 14 3 50 31 81 61 32 30 59 55 60 55 25 0
155 34 171 45 12 8 33 36 46 62 12 26 29 52 36 56 14 9 36 54 37 76 0 8 9 19
20 25 11 6 22 14 25 17 18 19 161 91 229 114 80 27 82 28 120 10 59 -26 103
-24 141 8 26 23 41 27 91 27 35 0 58 4 54 9 -8 14 12 23 35 16 11 -3 17 -12
14 -20 -10 -24 32 -38 241 -81 39 -8 107 -14 151 -14 49 0 99 -6 125 -16 34
-12 67 -14 149 -9 96 6 111 4 175 -19 41 -15 115 -31 177 -38 l107 -12 23 26
c19 21 35 26 91 31 37 4 91 2 120 -4 53 -10 127 1 357 52 47 10 105 21 130 25
25 3 68 12 95 20 66 18 185 20 214 4 27 -14 79 -9 156 14 133 41 269 75 355
89 262 44 288 45 359 12z m-4161 -67 c-7 -20 -53 -42 -73 -34 -16 6 -16 8 5
26 26 22 74 28 68 8z m170 -43 c12 -26 2 -41 -22 -32 -9 3 -12 15 -9 31 7 33
17 33 31 1z m3582 -110 c22 -26 -11 -61 -65 -69 -73 -11 -99 23 -49 63 32 25
96 28 114 6z m7600 -44 c0 -11 -168 -27 -177 -17 -4 3 11 7 33 7 21 1 53 5 69
9 43 11 75 11 75 1z m-7180 -26 c0 -10 -44 -27 -81 -30 -43 -4 -52 10 -16 25
23 9 97 13 97 5z m7160 -75 c0 -5 -5 -10 -11 -10 -5 0 -7 5 -4 10 3 6 8 10 11
10 2 0 4 -4 4 -10z m-8190 -135 c0 -8 -4 -15 -10 -15 -5 0 -10 7 -10 15 0 8 5
15 10 15 6 0 10 -7 10 -15z m190 -397 c0 -19 -42 -58 -62 -58 -28 0 -60 19
-52 31 17 28 114 51 114 27z m6105 -39 c11 -17 -1 -21 -15 -4 -8 9 -8 15 -2
15 6 0 14 -5 17 -11z m235 -6 c9 -10 15 -24 14 -30 -1 -7 -2 -24 -3 -37 -1
-19 -8 -26 -33 -31 -26 -6 -34 -3 -50 16 -25 33 -32 67 -18 84 17 21 72 19 90
-2z m-5902 -38 c21 -25 27 -27 67 -29 33 -2 29 -34 -8 -76 -20 -21 -38 -36
-40 -33 -3 2 -30 -9 -61 -26 -30 -17 -69 -31 -85 -31 -22 0 -35 -7 -47 -25 -9
-14 -23 -25 -30 -25 -8 0 -14 -7 -14 -15 0 -8 -5 -15 -11 -15 -5 0 -7 -4 -4
-10 3 -5 -1 -10 -9 -10 -9 0 -16 -8 -16 -19 0 -11 -4 -23 -10 -26 -5 -3 -10
-15 -10 -26 0 -10 -4 -19 -9 -19 -5 0 -7 -8 -4 -19 6 -23 -44 -61 -80 -61 -36
0 -46 35 -18 61 11 10 24 19 30 19 5 0 12 14 16 30 9 39 31 85 50 100 19 16
19 26 -1 34 -8 3 -13 2 -10 -3 3 -5 -9 -12 -28 -15 -25 -5 -47 0 -81 16 -38
18 -48 20 -55 9 -11 -18 -40 -6 -40 16 1 25 26 57 35 44 8 -14 46 21 65 62 22
46 58 51 93 14 25 -27 32 -29 69 -23 23 4 48 12 55 18 7 5 19 8 27 5 19 -7 71
26 93 60 31 50 41 52 71 18z m5717 -6 c5 -6 3 -9 -7 -9 -24 0 -48 11 -48 22 0
10 39 1 55 -13z m-6515 -9 c0 -5 -4 -10 -10 -10 -5 0 -10 5 -10 10 0 6 5 10
10 10 6 0 10 -4 10 -10z m6447 -26 c-3 -3 -12 -4 -19 -1 -8 3 -5 6 6 6 11 1
17 -2 13 -5z m-6327 -103 c0 -9 -24 -21 -41 -21 -16 0 -10 18 9 23 28 8 32 7
32 -2z m769 0 c8 -5 11 -16 6 -30 -3 -12 -10 -19 -15 -16 -4 3 -15 -12 -25
-33 -28 -64 -54 -110 -65 -117 -16 -10 -50 4 -50 21 0 8 3 14 8 14 4 0 18 23
31 50 14 28 29 50 33 50 5 0 18 16 29 35 22 37 26 40 48 26z m5541 -81 c0 -13
-46 -24 -62 -14 -9 6 -2 11 22 15 19 4 36 7 38 8 1 0 2 -3 2 -9z m-106 -26 c4
-10 14 -14 26 -11 11 3 20 1 20 -4 0 -5 -6 -9 -14 -9 -7 0 -25 -9 -39 -20 -14
-11 -36 -20 -50 -20 -16 0 -26 -7 -30 -20 -3 -14 -14 -20 -31 -20 -15 0 -29
-7 -32 -15 -4 -10 -20 -15 -44 -15 -30 0 -40 5 -45 21 -9 27 1 36 25 21 30
-19 41 -15 34 13 -8 33 17 43 52 20 24 -16 25 -16 24 2 -4 36 0 43 30 43 20 0
30 5 30 15 0 20 36 19 44 -1z m536 -10 c0 -2 -9 -4 -20 -4 -11 0 -20 4 -20 9
0 5 9 7 20 4 11 -3 20 -7 20 -9z m164 -43 c29 -11 4 -22 -33 -15 -17 4 -34 11
-37 15 -6 11 43 11 70 0z m1215 -58 c-1 -32 -3 -50 -6 -40 -2 9 -11 17 -19 17
-8 0 -14 10 -14 25 0 31 8 32 20 3 8 -20 9 -18 9 15 1 20 3 37 6 37 3 0 4 -26
4 -57z m-1539 23 c0 -1 -16 -2 -35 -2 -37 1 -47 12 -17 19 15 3 52 -8 52 -17z
m166 -7 c9 -15 -23 -10 -35 5 -10 12 -8 13 9 9 11 -3 23 -9 26 -14z m1312 -15
c-9 -9 -22 -14 -30 -11 -8 3 -4 8 12 15 35 15 37 14 18 -4z m-1523 -32 c13
-17 46 -5 38 14 -3 8 1 14 10 14 10 0 13 -7 10 -20 -7 -26 -14 -30 -63 -34
-43 -4 -68 -16 -32 -16 28 0 29 -16 2 -23 -30 -8 -59 3 -66 25 -5 16 -12 19
-38 14 -29 -5 -30 -5 -12 9 23 17 52 20 61 5 7 -12 55 -14 55 -2 -1 20 -19 34
-39 27 -12 -3 -21 -2 -21 4 0 5 12 11 28 13 27 4 48 -6 67 -30z m188 4 c9 -7
17 -18 17 -24 0 -6 12 -12 28 -14 24 -4 25 -5 7 -13 -11 -4 -27 -14 -35 -21
-29 -24 -67 -27 -81 -7 -8 11 -23 25 -34 31 -19 11 -19 11 5 11 14 0 34 -6 44
-14 27 -20 31 -19 31 10 0 19 -7 28 -23 32 -18 4 -21 8 -10 14 18 12 30 11 51
-5z m172 4 c-3 -5 -15 -10 -25 -10 -10 0 -22 5 -25 10 -4 6 7 10 25 10 18 0
29 -4 25 -10z m-930 -21 c19 0 19 -1 -2 -11 -16 -8 -27 -6 -45 7 l-23 17 25
-6 c14 -3 34 -6 45 -7z m-740 -18 c17 -6 42 -16 58 -23 15 -6 30 -21 33 -34 3
-13 10 -24 15 -24 5 0 9 -9 9 -20 0 -11 -4 -20 -8 -20 -14 0 -53 50 -47 60 9
15 -33 31 -61 24 -19 -5 -25 -4 -20 5 4 7 0 11 -11 11 -10 0 -25 5 -33 10 -13
8 -13 11 -1 19 15 10 23 9 66 -8z m1815 -11 c-20 -13 -50 -13 -50 0 0 6 15 10
33 10 24 0 28 -3 17 -10z m-1234 -25 c31 -7 27 -29 -7 -33 -13 -2 -32 -12 -42
-23 -10 -10 -23 -19 -30 -19 -7 0 -20 -9 -30 -20 -9 -11 -25 -20 -35 -20 -11
0 -31 -11 -47 -26 -36 -33 -88 -31 -93 4 -4 28 23 62 49 62 28 0 49 11 49 26
0 16 59 33 93 27 14 -3 28 1 32 8 5 7 4 10 -2 6 -5 -3 -10 0 -10 8 0 10 8 13
24 10 13 -3 35 -7 49 -10z m646 -27 c-12 -12 -64 -7 -69 7 -2 7 13 9 38 7 26
-3 37 -8 31 -14z m478 -14 c0 -8 -10 -18 -22 -23 -18 -6 -19 -9 -5 -14 17 -6
24 -47 9 -47 -5 0 -17 -8 -28 -18 -25 -23 -174 -121 -249 -164 -70 -40 -99
-52 -90 -38 3 6 -1 10 -9 10 -11 0 -16 9 -16 29 0 22 8 34 33 50 18 11 44 32
57 46 14 15 50 39 80 55 110 56 119 61 148 88 55 50 92 61 92 26z m-1507 5
c-8 -8 -16 -8 -30 0 -16 9 -14 10 12 11 21 0 26 -3 18 -11z m1228 -6 c25 7 25
-10 -1 -18 -21 -7 -60 10 -60 26 0 6 8 6 21 -2 12 -6 30 -9 40 -6z m-714 -20
c-9 -9 -19 -14 -23 -11 -10 10 6 28 24 28 15 0 15 -1 -1 -17z m-5917 -13 c0
-11 -30 -21 -41 -14 -5 3 -7 9 -5 13 6 10 46 11 46 1z m6239 1 c12 -8 12 -14
1 -40 -9 -23 -21 -32 -46 -37 -19 -3 -34 -12 -34 -19 0 -7 -11 -16 -25 -19
-13 -3 -29 -15 -35 -26 -6 -11 -21 -20 -34 -20 -13 0 -31 -9 -41 -20 -10 -11
-26 -20 -35 -20 -9 0 -29 -11 -44 -25 -46 -42 -91 -25 -84 31 2 21 10 30 32
35 15 4 35 17 43 28 8 12 23 21 33 21 11 0 28 9 38 20 10 11 34 21 54 22 22 2
35 8 34 17 -1 8 13 18 29 24 17 5 34 16 38 23 9 16 55 18 76 5z m-305 -27 c24
-17 17 -25 -26 -29 -44 -4 -42 -3 -27 -21 11 -14 9 -15 -21 -12 -37 3 -55 28
-21 28 25 0 28 15 4 24 -19 8 -8 22 22 28 26 5 45 0 69 -18z m447 -44 c10 -6
19 -15 19 -21 0 -15 -33 -46 -57 -53 -13 -4 -23 -14 -23 -21 0 -8 -15 -17 -35
-21 -20 -3 -35 -12 -35 -20 0 -8 -16 -16 -39 -20 -27 -4 -41 -12 -44 -25 -6
-23 -49 -26 -67 -4 -19 23 3 65 34 65 14 0 30 10 40 25 9 14 25 25 35 25 10 0
26 9 36 20 9 10 33 24 51 30 19 7 34 16 34 21 0 12 27 11 51 -1z m-970 -50 c5
0 9 7 9 15 0 16 20 19 58 9 30 -8 28 -24 -3 -24 -14 0 -29 -8 -35 -20 -16 -29
-48 -25 -61 7 -7 20 -7 28 3 34 8 5 14 3 16 -6 2 -8 8 -15 13 -15z m338 7 c6
-8 8 -16 5 -20 -10 -9 -34 4 -34 19 0 18 14 18 29 1z m-1990 -38 c25 -12 55
-26 66 -31 35 -16 99 -83 130 -137 17 -29 42 -74 57 -100 23 -39 28 -57 28
-123 0 -71 -13 -128 -30 -128 -11 0 -30 49 -30 78 -1 54 -38 192 -64 237 -63
107 -169 175 -280 178 -71 2 -81 15 -25 34 51 18 97 15 148 -8z m1935 1 c14
-5 26 -14 26 -20 0 -16 -18 -12 -40 10 -23 23 -21 24 14 10z m-75 -29 c28 -28
17 -61 -19 -61 -33 0 -43 20 -30 55 11 30 24 31 49 6z m-5116 -48 c-3 -7 -9
-13 -13 -13 -16 0 -22 21 -9 36 14 17 31 0 22 -23z m-3183 -12 c0 -10 -42 -23
-49 -15 -7 6 20 24 37 24 6 0 12 -4 12 -9z m8501 -12 c29 -29 21 -53 -19 -57
-38 -4 -63 12 -59 37 7 45 43 55 78 20z m-8296 -23 c19 -14 19 -15 1 -35 -25
-27 -89 -30 -79 -3 9 24 34 52 48 52 6 0 20 -6 30 -14z m385 -20 c0 -2 -3 -11
-6 -20 -9 -23 -24 -20 -24 4 0 11 7 20 15 20 8 0 15 -2 15 -4z m8133 -3 c4 -3
2 -12 -3 -18 -8 -9 -6 -14 5 -19 23 -8 18 -26 -7 -26 -40 0 -50 12 -35 43 12
26 27 34 40 20z m278 -3 c11 0 19 -4 19 -10 0 -5 -9 -10 -20 -10 -15 0 -20 -7
-20 -25 0 -22 -4 -25 -33 -25 -37 0 -57 15 -57 42 0 24 29 39 64 33 16 -3 37
-5 47 -5z m-9035 -76 c-7 -18 -44 -10 -63 13 -14 18 -7 36 10 30 7 -2 18 3 26
11 13 13 16 11 24 -12 5 -15 6 -34 3 -42z m6584 -503 c0 -10 -30 -24 -37 -17
-3 3 -2 9 2 15 8 13 35 15 35 2z m-60 -21 c-8 -5 -28 -9 -45 -9 -30 2 -30 2 5
9 51 11 57 11 40 0z m3116 -412 c-3 -29 -7 -33 -32 -34 -16 0 -37 -4 -46 -8
-23 -10 -23 6 0 27 14 13 71 47 79 47 2 0 1 -15 -1 -32z m-3659 -114 c5 -16
-29 -27 -38 -12 -4 6 -5 16 -2 21 7 11 35 5 40 -9z m-137 -69 c22 -26 -5 -42
-38 -21 -10 6 -10 11 -1 22 15 18 23 18 39 -1z m-154 -92 c-10 -10 -19 5 -10
18 6 11 8 11 12 0 2 -7 1 -15 -2 -18z m652 -5 c3 -13 -3 -18 -22 -18 -20 0
-26 5 -26 21 0 15 5 20 22 17 13 -2 24 -11 26 -20z m-247 -18 c5 0 9 -9 9 -20
0 -16 -7 -20 -30 -20 -19 0 -33 6 -37 16 -7 18 15 36 35 29 8 -3 18 -5 23 -5z
m-1036 -12 c33 -15 32 -24 -6 -44 -26 -13 -36 -14 -55 -3 -36 19 -34 23 33 58
1 1 14 -4 28 -11z m139 -24 c16 -6 23 -34 9 -34 -11 1 -43 26 -43 34 0 8 14 8
34 0z m376 -4 c13 -9 12 -12 -4 -25 -11 -8 -25 -15 -31 -15 -6 0 -20 7 -31 15
-16 13 -17 16 -4 25 8 5 24 10 35 10 11 0 27 -5 35 -10z m-215 -14 c22 -16 14
-46 -13 -46 -28 0 -56 25 -49 44 8 20 37 21 62 2z m594 -32 c8 -7 -9 -34 -21
-34 -24 0 -41 18 -35 35 5 12 13 14 29 9 13 -3 25 -8 27 -10z m-1056 -8 c39
-30 0 -63 -52 -45 -38 13 -39 19 -3 41 34 20 33 20 55 4z m1455 -28 c4 -18
-23 -31 -49 -23 -18 6 -26 35 -13 47 10 11 59 -8 62 -24z m-973 -18 c8 -13
-42 -43 -60 -36 -21 8 -19 21 8 34 28 14 44 14 52 2z m1475 -4 c0 -25 -40 -47
-63 -34 -21 11 -21 11 2 29 28 23 61 25 61 5z m-1060 -31 c17 -20 8 -27 -24
-19 -26 6 -32 15 -19 27 11 12 30 8 43 -8z m-1056 -5 c34 -13 33 -24 -6 -43
-28 -14 -35 -14 -60 -1 -15 8 -28 17 -28 20 0 4 54 31 67 34 1 0 13 -4 27 -10z
m716 -5 c10 -12 7 -15 -14 -21 -35 -8 -52 4 -29 22 23 17 28 17 43 -1z m749
-10 c2 -2 1 -11 -2 -18 -4 -10 -15 -13 -31 -10 -30 6 -40 18 -30 34 5 9 52 5
63 -6z m386 -5 c0 -18 -43 -26 -57 -12 -16 16 2 33 30 30 16 -2 27 -9 27 -18z
m-1370 -21 c8 -13 -23 -38 -47 -39 -25 0 -22 23 5 36 30 15 35 16 42 3z m79
-45 c13 -5 14 -9 5 -20 -13 -16 -28 -17 -49 -4 -13 9 -13 11 0 20 18 12 23 12
44 4z m319 -1 c10 -10 -24 -43 -44 -43 -28 0 -31 17 -7 34 24 17 41 20 51 9z
m446 -9 c10 -9 -11 -34 -28 -34 -24 0 -35 15 -27 36 4 11 13 13 28 8 13 -3 25
-8 27 -10z m391 6 c13 -9 13 -12 -3 -24 -28 -21 -78 -2 -62 24 8 13 46 13 65
0z m370 -19 c0 -14 -18 -23 -30 -16 -6 4 -8 11 -5 16 8 12 35 12 35 0z m-2307
-15 c4 -16 -53 -30 -66 -17 -9 9 -8 14 3 22 18 11 60 8 63 -5z m1197 0 c0 -16
-21 -26 -58 -26 l-27 0 30 20 c35 23 55 26 55 6z m-650 -16 c0 -14 -48 -43
-60 -35 -16 10 -12 21 13 33 28 14 47 15 47 2z m-470 -30 c0 -5 -9 -10 -20
-10 -11 0 -20 5 -20 10 0 6 9 10 20 10 11 0 20 -4 20 -10z m867 -17 c6 -18
-37 -37 -50 -24 -8 8 -5 15 9 26 21 16 36 15 41 -2z m849 6 c3 -6 2 -15 -3
-20 -12 -12 -53 1 -53 17 0 17 46 19 56 3z m-1163 -14 c-3 -13 -30 -18 -51
-10 -14 5 -14 7 -2 16 19 11 56 8 53 -6z m-823 -25 c0 -5 -12 -10 -27 -10 -22
0 -25 2 -13 10 20 13 40 13 40 0z m1223 -5 c1 -5 -10 -11 -25 -13 -16 -2 -28
1 -28 7 0 20 49 26 53 6z m1124 -50 c-31 -27 -36 -29 -56 -16 -28 18 -4 41 41
41 l43 -1 -28 -24z m-1357 1 c0 -19 -58 -42 -72 -28 -7 7 -2 15 18 26 36 19
54 20 54 2z m-1153 -32 c6 -17 -58 -37 -71 -23 -8 7 -5 15 9 25 22 16 56 15
62 -2z m1226 -9 c1 -5 -10 -11 -25 -13 -16 -2 -28 1 -28 7 0 20 49 26 53 6z
m-658 -55 c-3 -5 -10 -10 -16 -10 -5 0 -9 5 -9 10 0 6 7 10 16 10 8 0 12 -4 9
-10z m-765 -20 c13 -9 12 -12 -4 -25 -23 -17 -35 -18 -56 -5 -13 8 -12 11 5
24 24 18 35 19 55 6z m2028 -2 c-3 -7 -17 -13 -33 -13 -16 0 -30 6 -32 13 -3
8 7 12 32 12 25 0 35 -4 33 -12z m389 -4 c9 -25 -11 -38 -38 -24 -22 12 -22
13 -4 26 24 18 34 18 42 -2z m933 -4 c0 -5 -2 -10 -4 -10 -3 0 -8 5 -11 10 -3
6 -1 10 4 10 6 0 11 -4 11 -10z m-2250 -20 c0 -5 -6 -10 -14 -10 -8 0 -18 5
-21 10 -3 6 3 10 14 10 12 0 21 -4 21 -10z m-561 -14 c14 -17 8 -22 -43 -31
-29 -6 -37 -5 -31 4 4 7 14 10 23 6 9 -3 13 -3 9 1 -7 8 10 34 23 34 4 0 13
-6 19 -14z m-442 -12 c5 -15 -25 -26 -50 -18 -20 6 -20 7 -2 21 22 15 46 14
52 -3z m964 -2 c-7 -2 -18 1 -23 6 -8 8 -4 9 13 5 13 -4 18 -8 10 -11z m-436
-32 c-3 -5 -12 -10 -18 -10 -7 0 -6 4 3 10 19 12 23 12 15 0z m1644 -4 c10
-11 8 -16 -9 -21 -24 -8 -46 7 -36 24 10 15 31 14 45 -3z m-399 -13 c0 -5 -4
-15 -10 -23 -11 -18 -25 -7 -17 15 6 15 27 21 27 8z m-2153 -60 c6 -18 -53
-33 -73 -19 -16 12 -15 14 6 29 23 16 61 10 67 -10z m657 18 c9 -14 -22 -34
-44 -28 -11 3 -23 1 -26 -4 -7 -12 -24 -11 -24 1 0 6 6 10 14 10 8 0 16 7 20
15 6 16 51 21 60 6z m516 -1 c0 -5 -4 -10 -10 -10 -5 0 -10 5 -10 10 0 6 5 10
10 10 6 0 10 -4 10 -10z m1035 -10 c3 -5 1 -10 -4 -10 -6 0 -11 5 -11 10 0 6
2 10 4 10 3 0 8 -4 11 -10z m2319 -20 c-21 -16 -43 -30 -48 -30 -5 0 8 13 30
30 21 16 43 30 48 30 5 0 -8 -13 -30 -30z m-3384 10 c27 -17 0 -24 -33 -7 -30
15 -31 16 -7 16 14 0 32 -3 40 -9z m1271 -35 c0 -5 -12 -11 -26 -13 -18 -2
-25 1 -25 13 0 12 7 15 25 13 14 -2 26 -7 26 -13z m-822 -48 c-16 -13 -31 -16
-58 -11 -54 10 -57 15 -15 33 31 14 45 15 67 7 l28 -11 -22 -18z m-1138 23
c27 -15 24 -25 -18 -50 -23 -14 -45 -19 -60 -15 -29 7 -25 29 6 33 12 2 27 12
34 23 14 22 13 22 38 9z m566 -25 c-2 -5 -12 -12 -23 -14 -10 -2 -22 -8 -25
-13 -8 -13 -59 3 -58 17 1 11 3 11 34 -1 20 -7 20 -6 1 8 -18 14 -19 16 -1 25
21 12 77 -5 72 -22z m3417 10 c-10 -8 -23 -14 -29 -14 -5 0 -1 6 9 14 11 8 24
15 30 15 5 0 1 -7 -10 -15z m-4647 -21 c7 -19 -13 -34 -44 -34 -30 0 -40 20
-18 37 25 18 54 17 62 -3z m4580 -21 c-9 -10 -31 -27 -49 -37 -39 -22 -27 -7
22 28 42 30 48 31 27 9z m-4493 -38 c-4 -8 -15 -15 -25 -15 -21 0 -26 16 -6
23 24 10 36 7 31 -8z m951 -7 c36 -16 31 -35 -12 -43 -21 -4 -41 -12 -44 -17
-10 -15 -59 -1 -59 17 0 8 8 15 18 15 9 0 28 9 42 20 30 23 24 22 55 8z m1015
-27 c0 -12 -41 -22 -54 -13 -6 3 -23 5 -38 3 -38 -4 -35 12 5 31 28 13 36 14
60 2 15 -8 27 -18 27 -23z m350 30 c0 -9 -24 -21 -41 -21 -16 0 -10 18 9 23
28 8 32 7 32 -2z m-900 -11 c0 -5 -4 -10 -10 -10 -5 0 -10 5 -10 10 0 6 5 10
10 10 6 0 10 -4 10 -10z m-1015 -20 c0 -10 -9 -14 -26 -13 -19 1 -26 -3 -25
-15 1 -12 -6 -16 -24 -14 -33 4 -49 20 -30 32 8 5 17 7 21 4 4 -2 10 3 13 12
8 21 71 15 71 -6z m985 0 c0 -5 -7 -10 -15 -10 -8 0 -15 5 -15 10 0 6 7 10 15
10 8 0 15 -4 15 -10z m-1676 -13 c15 -11 15 -15 4 -24 -25 -21 -64 -25 -77 -9
-29 34 33 62 73 33z m773 -43 c-9 -9 -28 6 -21 18 4 6 10 6 17 -1 6 -6 8 -13
4 -17z m-692 -24 c-3 -5 -15 -10 -26 -10 -10 0 -19 5 -19 10 0 6 12 10 26 10
14 0 23 -4 19 -10z m959 4 c20 -8 21 -24 2 -24 -8 0 -21 -9 -29 -21 -11 -14
-23 -20 -43 -17 -39 4 -36 24 6 47 40 23 43 23 64 15z m517 -4 c5 0 9 -6 9
-13 0 -11 -88 -43 -96 -34 -9 8 50 58 63 53 8 -3 19 -6 24 -6z m917 -4 c13
-14 -34 -36 -67 -32 -42 6 -47 11 -30 32 10 12 24 15 52 11 21 -3 41 -8 45
-11z m-2002 -20 c21 -16 22 -14 -28 -45 -30 -18 -41 -20 -58 -11 -27 14 -25
28 4 40 13 5 27 14 31 19 9 15 28 14 51 -3z m-695 -16 c5 0 9 -9 9 -20 0 -14
-9 -21 -34 -26 -38 -7 -56 0 -56 20 0 16 40 36 58 30 8 -2 18 -4 23 -4z m2162
-15 c-1 -5 -18 -15 -38 -20 -20 -6 -33 -14 -29 -18 4 -4 -7 -7 -24 -7 -22 0
-32 5 -32 15 0 8 5 15 11 15 6 0 17 7 26 16 17 17 89 16 86 -1z m73 -16 c7
-12 -22 -23 -41 -15 -22 8 -7 35 16 29 11 -3 22 -9 25 -14z m-632 -40 c10 -9
-8 -26 -49 -49 -16 -8 -28 -8 -50 1 -28 12 -29 13 -7 16 12 3 22 8 22 13 0 5
7 16 16 25 16 16 48 13 68 -6z m-1514 2 c0 -11 -39 -21 -45 -11 -2 4 -2 10 2
14 10 9 43 7 43 -3z m1008 -5 c9 -9 -11 -27 -51 -46 -47 -23 -47 -23 -67 -10
-12 8 -9 15 19 41 28 25 40 30 64 25 17 -3 32 -8 35 -10z m1388 3 c8 -14 -14
-29 -43 -29 -27 0 -30 15 -5 29 23 14 39 14 48 0z m-1997 -28 c8 -5 11 -16 7
-26 -5 -13 -13 -16 -37 -11 -17 3 -28 2 -24 -3 10 -16 -13 -22 -35 -9 -23 15
-26 28 -6 28 7 0 19 7 26 15 14 17 47 19 69 6z m1201 -11 c0 -5 -4 -10 -10
-10 -5 0 -10 5 -10 10 0 6 5 10 10 10 6 0 10 -4 10 -10z m296 -16 c6 -7 22
-14 35 -15 l24 0 -23 -12 c-18 -8 -25 -8 -32 3 -7 11 -11 11 -24 1 -9 -7 -23
-10 -32 -7 -9 4 -21 0 -28 -9 -7 -9 -19 -12 -34 -9 -22 6 -21 8 15 40 40 36
76 39 99 8z m-2309 -61 c3 -6 -10 -19 -26 -28 -25 -12 -36 -13 -53 -4 l-21 11
24 19 c26 20 70 22 76 2z m1201 -5 c2 -8 -14 -28 -34 -43 -30 -23 -41 -26 -62
-19 -38 13 -33 26 23 56 53 29 68 30 73 6z m526 16 c28 -11 17 -33 -26 -53
-41 -18 -79 -16 -85 5 -3 11 57 52 79 53 9 1 23 -2 32 -5z m916 -8 c0 -20 -56
-58 -78 -54 -28 5 -19 32 18 50 43 22 60 23 60 4z m-2044 -35 c-4 -6 -13 -11
-20 -11 -8 0 -16 -9 -19 -20 -5 -21 -40 -27 -66 -11 -17 11 -5 31 19 31 10 0
22 5 25 11 10 16 49 28 59 19 4 -5 5 -13 2 -19z m1530 -13 c9 -14 -26 -39 -78
-55 -33 -9 -40 -9 -45 3 -6 16 25 56 38 49 4 -3 10 -1 14 5 9 14 62 13 71 -2z
m-2056 -6 c0 -13 -12 -22 -22 -16 -10 6 -1 24 13 24 5 0 9 -4 9 -8z m2120 -32
c0 -5 -7 -10 -16 -10 -8 0 -12 5 -9 10 3 6 10 10 16 10 5 0 9 -4 9 -10z m-670
-41 c0 -4 -11 -20 -25 -35 -23 -25 -27 -26 -50 -14 -33 18 -32 25 13 48 36 18
62 19 62 1z m-1773 -5 c4 -12 -56 -28 -66 -18 -9 8 31 35 48 32 8 -2 16 -8 18
-14z m1223 -9 c0 -8 -7 -15 -15 -15 -8 0 -15 -7 -15 -16 0 -11 -8 -14 -32 -12
-35 3 -43 16 -18 28 8 4 24 12 35 18 28 15 45 14 45 -3z m944 -32 c10 -25 -31
-53 -76 -53 -47 0 -49 17 -5 47 39 26 73 29 81 6z m90 -22 c3 -5 -3 -11 -15
-14 -16 -4 -18 -3 -8 9 13 16 16 17 23 5z m-690 -37 c26 -10 18 -31 -20 -53
-35 -21 -74 -27 -87 -14 -9 8 22 43 38 43 7 0 18 7 25 15 14 17 21 18 44 9z
m-1796 -25 c4 -23 -71 -47 -93 -29 -14 12 -14 15 2 32 21 24 86 22 91 -3z
m1252 -12 c0 -8 -3 -8 -11 0 -6 6 -19 9 -28 6 -13 -4 -13 -3 -2 5 16 12 41 5
41 -11z m-634 1 c4 -6 -1 -17 -12 -24 -10 -7 -26 -20 -36 -29 -19 -20 -63 -16
-63 5 0 10 8 14 23 13 13 -2 21 1 17 6 -6 11 32 41 52 41 6 0 15 -5 19 -12z
m1545 -51 c-14 -23 -29 -33 -51 -35 -26 -3 -31 0 -28 15 2 10 12 19 23 21 11
2 28 13 38 23 28 30 41 12 18 -24z m-2437 -43 c26 -10 19 -31 -16 -48 -38 -19
-33 -19 -52 0 -22 22 -20 31 12 42 34 13 37 13 56 6z m1866 -14 c-13 -25 -70
-28 -70 -4 0 11 6 14 21 9 12 -4 19 -3 16 2 -3 5 6 10 19 11 22 2 23 -1 14
-18z m-555 0 c10 -16 -14 -40 -40 -40 -13 0 -25 -7 -29 -15 -6 -17 -43 -20
-66 -5 -18 11 -15 13 41 44 47 26 84 32 94 16z m475 -31 c0 -6 -4 -7 -10 -4
-5 3 -10 11 -10 16 0 6 5 7 10 4 6 -3 10 -11 10 -16z m-1105 1 c10 -16 -14
-40 -38 -40 -11 0 -29 -8 -39 -17 -14 -13 -25 -14 -45 -7 -40 14 -38 28 9 51
46 23 103 30 113 13z m-585 -29 c0 -9 -24 -21 -42 -21 -6 0 -6 6 2 15 14 16
40 20 40 6z m2128 -23 c-5 -15 -42 -22 -64 -14 -25 10 -5 26 32 26 24 0 34 -4
32 -12z m-600 -27 c9 -5 25 -12 35 -15 37 -12 16 -26 -34 -22 -60 5 -69 11
-43 31 23 17 20 17 42 6z m-553 -23 c35 -16 28 -40 -15 -51 -19 -5 -40 -13
-46 -18 -15 -12 -74 0 -74 16 0 6 10 17 23 24 12 6 33 18 47 26 30 18 33 18
65 3z m489 -14 c25 -9 19 -34 -7 -34 -30 0 -40 10 -26 27 13 15 12 15 33 7z
m-1146 -17 c14 -17 5 -30 -43 -63 -31 -21 -44 -25 -65 -17 -37 13 -31 30 25
63 56 33 68 36 83 17z m1642 -7 c13 -9 11 -13 -10 -30 -14 -11 -30 -24 -37
-30 -14 -11 -40 -12 -67 -1 -16 6 -13 11 25 39 45 34 64 38 89 22z m533 -36
c3 -19 1 -24 -10 -20 -8 3 -17 6 -19 6 -2 0 -4 9 -4 20 0 29 27 25 33 -6z
m-1158 -48 c24 -18 13 -44 -22 -51 -15 -4 -36 -10 -45 -16 -23 -12 -59 -11
-78 1 -12 9 -9 15 20 39 19 16 38 27 42 25 3 -2 9 0 13 6 9 14 48 12 70 -4z
m-621 -14 c2 -4 -5 -26 -18 -47 -20 -36 -26 -40 -56 -37 -47 4 -63 18 -47 43
6 10 20 19 29 19 10 0 18 4 18 9 0 16 65 27 74 13z m-1319 -21 c0 -38 -100
-70 -128 -42 -21 22 39 62 88 59 26 -2 40 -8 40 -17z m637 -44 c-14 -13 -27
-17 -39 -13 -17 7 -16 9 5 26 13 11 30 16 38 13 13 -5 13 -9 -4 -26z m1726 16
c-5 -25 -85 -65 -122 -61 -41 4 -39 21 4 51 44 32 124 38 118 10z m-968 -2 c0
-5 -7 -11 -15 -15 -15 -5 -20 5 -8 17 9 10 23 9 23 -2z m-815 -41 c11 -19 -5
-30 -25 -18 -14 9 -16 14 -7 20 16 10 25 10 32 -2z m1100 -20 c40 -15 30 -48
-23 -76 -43 -23 -95 -24 -108 -2 -8 13 31 53 70 72 37 19 30 18 61 6z m-588
-36 c3 -9 -7 -28 -28 -50 -26 -27 -41 -34 -70 -34 -52 0 -66 20 -33 51 48 45
119 63 131 33z m1024 -24 c10 -6 19 -19 19 -29 0 -19 -25 -35 -40 -26 -5 3
-11 -4 -15 -15 -7 -21 -37 -26 -82 -14 -35 10 -27 30 25 62 52 34 64 37 93 22z
m-1712 -26 c3 -2 -2 -11 -11 -20 -10 -10 -29 -14 -54 -12 l-39 3 25 23 c18 17
32 21 50 17 14 -4 27 -9 29 -11z m1791 -14 c0 -5 -7 -10 -16 -10 -8 0 -12 5
-9 10 3 6 10 10 16 10 5 0 9 -4 9 -10z m-736 -56 c30 -12 18 -43 -24 -61 -22
-10 -40 -21 -40 -25 0 -14 -67 -8 -80 7 -10 12 -7 21 16 49 24 29 36 35 71 35
23 1 48 -2 57 -5z m403 -56 c18 -7 33 -18 33 -24 0 -17 -28 -44 -46 -44 -8 0
-14 -4 -14 -9 0 -17 -32 -21 -71 -10 -39 12 -53 40 -26 53 6 3 26 15 42 25 37
24 40 24 82 9z m-1112 -22 c45 -33 -37 -95 -103 -77 -66 18 -15 80 74 90 5 0
19 -5 29 -13z m1212 -22 c-3 -3 -12 -4 -19 -1 -8 3 -5 6 6 6 11 1 17 -2 13 -5z
m237 -97 c9 -15 7 -22 -13 -38 -27 -22 -60 -24 -86 -5 -17 12 -18 17 -7 40 11
24 17 27 54 24 26 -2 45 -9 52 -21z m-1149 -49 c27 -12 30 -20 15 -48 -16 -30
-66 -42 -106 -25 -40 17 -42 28 -9 60 26 27 60 32 100 13z m888 -104 c40 -21
37 -17 42 -46 4 -21 -1 -28 -34 -43 -90 -40 -191 25 -134 87 21 23 82 24 126
2z m-511 -27 c7 -7 21 -16 32 -20 14 -6 17 -13 11 -34 -4 -16 -12 -31 -18 -36
-14 -9 -148 1 -160 13 -4 4 4 22 19 40 40 47 89 63 116 37z m206 -180 c5 -26
-25 -56 -65 -63 -40 -7 -68 10 -43 26 8 5 11 10 7 10 -13 0 15 24 43 37 33 16
54 12 58 -10z"/>
<path d="M4405 8441 c-16 -4 -40 -13 -52 -19 -12 -7 -34 -12 -48 -12 -16 0
-25 -5 -23 -12 3 -9 35 -12 107 -10 141 2 168 12 119 46 -24 17 -53 19 -103 7z"/>
<path d="M4710 8290 c0 -7 56 -50 65 -50 4 0 5 12 3 28 -3 23 -8 27 -35 27
-18 1 -33 -2 -33 -5z"/>
<path d="M3966 7944 c-12 -32 34 -59 59 -35 6 5 21 11 34 13 22 3 26 -2 33
-36 9 -44 26 -69 39 -60 14 8 11 37 -7 73 -19 38 -34 46 -100 55 -43 5 -53 4
-58 -10z"/>
<path d="M10285 9170 c-3 -5 -1 -10 4 -10 6 0 11 5 11 10 0 6 -2 10 -4 10 -3
0 -8 -4 -11 -10z"/>
<path d="M9721 9098 c-1 -33 3 -58 9 -58 12 0 12 67 0 95 -6 14 -9 4 -9 -37z"/>
<path d="M9302 8750 c0 -14 2 -19 5 -12 2 6 2 18 0 25 -3 6 -5 1 -5 -13z"/>
<path d="M9287 8688 c14 -17 24 -168 12 -168 -5 0 -9 -8 -9 -17 0 -15 3 -14
22 4 19 20 20 25 9 47 -9 15 -12 42 -9 69 5 41 -8 77 -27 77 -4 0 -3 -6 2 -12z"/>
<path d="M9339 8685 c-2 -6 -2 -57 1 -115 l6 -105 4 92 c5 89 0 149 -11 128z"/>
<path d="M9290 8436 c0 -9 5 -16 10 -16 6 0 10 4 10 9 0 6 -4 13 -10 16 -5 3
-10 -1 -10 -9z"/>
<path d="M9305 8210 c3 -5 8 -10 11 -10 2 0 4 5 4 10 0 6 -5 10 -11 10 -5 0
-7 -4 -4 -10z"/>
<path d="M1972 8290 c-18 -11 -32 -24 -32 -30 0 -5 -6 -10 -13 -10 -9 0 -11
-12 -9 -41 3 -31 8 -39 21 -37 10 2 15 12 14 25 -2 14 9 30 32 48 55 41 44 79
-13 45z"/>
<path d="M2080 8250 c0 -5 9 -10 20 -10 11 0 20 5 20 10 0 6 -9 10 -20 10 -11
0 -20 -4 -20 -10z"/>
<path d="M1827 8085 c-22 -16 -20 -60 2 -60 16 0 32 47 22 63 -4 7 -12 6 -24
-3z"/>
<path d="M1585 8040 c-21 -23 -13 -50 14 -50 23 0 56 43 46 60 -10 16 -40 12
-60 -10z"/>
<path d="M1735 7900 c-3 -10 -1 -28 5 -40 l11 -20 21 20 22 20 -22 20 c-26 25
-29 25 -37 0z"/>
<path d="M2145 7530 c-3 -5 -1 -10 4 -10 6 0 11 5 11 10 0 6 -2 10 -4 10 -3 0
-8 -4 -11 -10z"/>
<path d="M1895 7389 c-9 -27 4 -40 32 -33 20 6 37 37 25 48 -14 15 -51 5 -57
-15z"/>
<path d="M3230 7020 c0 -5 12 -10 26 -10 14 0 23 4 19 10 -3 6 -15 10 -26 10
-10 0 -19 -4 -19 -10z"/>
<path d="M6944 6205 c-10 -25 4 -45 30 -45 21 0 35 20 36 53 0 14 -61 7 -66
-8z"/>
<path d="M2835 6180 c-96 -7 -115 -15 -115 -46 0 -34 28 -44 127 -44 48 0 95
-4 102 -9 22 -14 48 4 60 42 23 69 14 72 -174 57z"/>
<path d="M3098 6059 c-18 -10 -25 -39 -10 -39 17 1 34 19 30 33 -2 12 -7 13
-20 6z"/>
<path d="M6516 6017 c-24 -17 -13 -57 15 -57 23 0 41 39 27 58 -13 15 -20 15
-42 -1z"/>
<path d="M2530 5995 c-13 -14 -29 -25 -34 -25 -10 0 -46 -39 -46 -51 0 -13 31
-39 46 -39 48 0 96 52 92 99 -4 44 -24 49 -58 16z"/>
<path d="M3504 5590 c4 -25 0 -43 -14 -65 -23 -34 -25 -63 -8 -100 l11 -25 34
37 c24 28 31 43 26 58 -4 11 -7 39 -5 61 1 27 -3 46 -13 54 -12 10 -15 10 -15
-1 0 -11 -3 -11 -11 1 -8 11 -9 6 -5 -20z"/>
<path d="M2965 5210 c-13 -15 -16 -30 -13 -65 7 -55 10 -60 37 -46 34 19 43
46 31 91 -12 44 -28 50 -55 20z"/>
<path d="M4701 5154 c-31 -39 -27 -54 14 -54 32 0 35 3 35 29 0 16 -6 34 -14
40 -11 9 -18 6 -35 -15z"/>
<path d="M3413 5098 c-9 -18 -26 -50 -36 -70 -11 -21 -23 -38 -27 -38 -5 0
-12 -14 -15 -32 -11 -47 14 -61 91 -53 48 5 63 3 73 -9 20 -24 48 -19 71 14
24 33 45 37 77 15 20 -14 26 -12 85 21 89 51 91 52 85 97 -3 21 -7 41 -10 43
-2 3 -20 -11 -40 -31 -20 -20 -45 -35 -59 -35 -13 0 -40 -11 -60 -25 -20 -14
-42 -25 -48 -25 -6 0 -8 -5 -4 -12 6 -10 4 -10 -7 -2 -23 18 -58 23 -91 13
-32 -9 -58 2 -58 25 0 6 14 27 30 46 46 54 38 90 -21 90 -11 0 -26 -13 -36
-32z"/>
<path d="M4480 5075 c0 -8 9 -19 19 -25 27 -14 40 9 16 27 -24 17 -35 17 -35
-2z"/>
<path d="M4132 4941 c-16 -10 -13 -93 4 -98 6 -2 19 14 29 36 14 33 15 43 5
56 -14 17 -20 18 -38 6z"/>
</g>
</svg>
